<?xml version="1.0" encoding="UTF-8"?>
<svg version="1.1" xmlns="http://www.w3.org/2000/svg" width="427" height="483">
  <path d="M0 0 C0.57145752 0.6180249 1.14291504 1.2360498 1.73168945 1.87280273 C5.42079262 5.72933864 5.42079262 5.72933864 10.36157227 7.21826172 C13.08324927 6.84906771 15.65485636 6.25577822 18.3125 5.5625 C20.35433311 5.1201056 22.39876575 4.68958087 24.4453125 4.26953125 C25.51297852 4.04861816 26.58064453 3.82770508 27.68066406 3.60009766 C48.41963905 -0.14926984 70.24004573 0.35192162 91.1875 1.75 C92.3226001 1.82532959 93.4577002 1.90065918 94.62719727 1.97827148 C100.48325392 2.43275285 106.11848234 3.15423317 111.859375 4.41015625 C123.0404308 7.56268835 123.0404308 7.56268835 133.76953125 5.16015625 C136.43326589 2.92300278 138.55753021 0.30964534 140.68408203 -2.43066406 C142.85329828 -5.01762548 145.49375172 -6.9973223 148.1875 -9 C148.72044678 -9.40347656 149.25339355 -9.80695312 149.80249023 -10.22265625 C166.95198256 -23.02734123 192.50954045 -41.42795391 215.17578125 -38.7421875 C223.13175598 -37.09405714 228.42506913 -32.42226068 233 -26 C251.47212866 3.44832106 246.18475356 48.6919306 241.71875 81.44921875 C241.54267212 82.82654175 241.54267212 82.82654175 241.36303711 84.23168945 C241.11753152 86.10377273 240.84408937 87.97237015 240.54516602 89.83666992 C239.59836573 96.7512539 240.59508855 100.88087021 243.9375 106.9375 C244.77991213 108.58460431 245.61699473 110.23444335 246.44921875 111.88671875 C246.87638184 112.72638184 247.30354492 113.56604492 247.74365234 114.43115234 C251.31554804 121.73458929 254.13369343 129.39841605 257 137 C257.67482422 138.78664062 257.67482422 138.78664062 258.36328125 140.609375 C281.29107481 205.43453726 290.61590643 291.63219539 260.8125 355.5625 C253.87048946 369.98357537 245.05620311 381.51325939 234 393 C233.12988281 393.96486328 233.12988281 393.96486328 232.2421875 394.94921875 C207.20151127 421.94029941 166.90320744 432.05668092 132 437 C130.80286377 437.16991455 130.80286377 437.16991455 129.58154297 437.34326172 C110.0203518 440.04032859 90.4007851 440.20589228 70.6875 440.1875 C69.49168304 440.18689575 68.29586609 440.1862915 67.06381226 440.18566895 C11.29156141 440.1091734 -46.70088716 435.36741713 -91 398 C-91.63421875 397.48824219 -92.2684375 396.97648437 -92.921875 396.44921875 C-123.60369929 371.26568598 -135.4456061 329.91321167 -139.59375 292.078125 C-140.33490308 283.14055041 -140.24442338 274.14950991 -140.25 265.1875 C-140.25067474 264.21191132 -140.25134949 263.23632263 -140.25204468 262.23117065 C-140.23352963 245.30408986 -139.39983422 228.77758119 -137 212 C-136.83371094 210.8258252 -136.66742188 209.65165039 -136.49609375 208.44189453 C-132.64752261 182.2110314 -126.79106659 155.6939562 -117 131 C-116.6803125 130.19288574 -116.360625 129.38577148 -116.03125 128.55419922 C-115.03627615 126.07113705 -114.02360201 123.59639058 -113 121.125 C-112.67153076 120.32900391 -112.34306152 119.53300781 -112.00463867 118.71289062 C-110.48733216 115.13433049 -108.92830685 111.75062345 -106.83203125 108.47265625 C-100.48999212 98.15610904 -102.35989848 90.11521005 -104.49804688 78.77880859 C-108.89971931 54.41118425 -109.16498748 26.4272455 -105 2 C-104.82259277 0.92226318 -104.82259277 0.92226318 -104.64160156 -0.17724609 C-102.48584982 -12.5879034 -98.50528523 -25.88199155 -88.5625 -34.3125 C-61.22964896 -52.34846293 -19.73033739 -16.80410527 0 0 Z " fill="#F9F8F7" transform="translate(145,40)"/>
  <path d="M0 0 C0.57145752 0.6180249 1.14291504 1.2360498 1.73168945 1.87280273 C5.42079262 5.72933864 5.42079262 5.72933864 10.36157227 7.21826172 C13.08324927 6.84906771 15.65485636 6.25577822 18.3125 5.5625 C20.35433311 5.1201056 22.39876575 4.68958087 24.4453125 4.26953125 C25.51297852 4.04861816 26.58064453 3.82770508 27.68066406 3.60009766 C48.41963905 -0.14926984 70.24004573 0.35192162 91.1875 1.75 C92.3226001 1.82532959 93.4577002 1.90065918 94.62719727 1.97827148 C100.48325392 2.43275285 106.11848234 3.15423317 111.859375 4.41015625 C123.0404308 7.56268835 123.0404308 7.56268835 133.76953125 5.16015625 C136.43326589 2.92300278 138.55753021 0.30964534 140.68408203 -2.43066406 C142.85329828 -5.01762548 145.49375172 -6.9973223 148.1875 -9 C148.72044678 -9.40347656 149.25339355 -9.80695312 149.80249023 -10.22265625 C166.95198256 -23.02734123 192.50954045 -41.42795391 215.17578125 -38.7421875 C223.13175598 -37.09405714 228.42506913 -32.42226068 233 -26 C251.47212866 3.44832106 246.18475356 48.6919306 241.71875 81.44921875 C241.54267212 82.82654175 241.54267212 82.82654175 241.36303711 84.23168945 C241.11753152 86.10377273 240.84408937 87.97237015 240.54516602 89.83666992 C239.59836573 96.7512539 240.59508855 100.88087021 243.9375 106.9375 C244.77991213 108.58460431 245.61699473 110.23444335 246.44921875 111.88671875 C246.87638184 112.72638184 247.30354492 113.56604492 247.74365234 114.43115234 C251.31554804 121.73458929 254.13369343 129.39841605 257 137 C257.67482422 138.78664062 257.67482422 138.78664062 258.36328125 140.609375 C281.29107481 205.43453726 290.61590643 291.63219539 260.8125 355.5625 C253.87048946 369.98357537 245.05620311 381.51325939 234 393 C233.12988281 393.96486328 233.12988281 393.96486328 232.2421875 394.94921875 C207.20151127 421.94029941 166.90320744 432.05668092 132 437 C130.80286377 437.16991455 130.80286377 437.16991455 129.58154297 437.34326172 C110.0203518 440.04032859 90.4007851 440.20589228 70.6875 440.1875 C69.49168304 440.18689575 68.29586609 440.1862915 67.06381226 440.18566895 C11.29156141 440.1091734 -46.70088716 435.36741713 -91 398 C-91.63421875 397.48824219 -92.2684375 396.97648437 -92.921875 396.44921875 C-123.60369929 371.26568598 -135.4456061 329.91321167 -139.59375 292.078125 C-140.33490308 283.14055041 -140.24442338 274.14950991 -140.25 265.1875 C-140.25067474 264.21191132 -140.25134949 263.23632263 -140.25204468 262.23117065 C-140.23352963 245.30408986 -139.39983422 228.77758119 -137 212 C-136.83371094 210.8258252 -136.66742188 209.65165039 -136.49609375 208.44189453 C-132.64752261 182.2110314 -126.79106659 155.6939562 -117 131 C-116.6803125 130.19288574 -116.360625 129.38577148 -116.03125 128.55419922 C-115.03627615 126.07113705 -114.02360201 123.59639058 -113 121.125 C-112.67153076 120.32900391 -112.34306152 119.53300781 -112.00463867 118.71289062 C-110.48733216 115.13433049 -108.92830685 111.75062345 -106.83203125 108.47265625 C-100.48999212 98.15610904 -102.35989848 90.11521005 -104.49804688 78.77880859 C-108.89971931 54.41118425 -109.16498748 26.4272455 -105 2 C-104.82259277 0.92226318 -104.82259277 0.92226318 -104.64160156 -0.17724609 C-102.48584982 -12.5879034 -98.50528523 -25.88199155 -88.5625 -34.3125 C-61.22964896 -52.34846293 -19.73033739 -16.80410527 0 0 Z M60 12 C60.061875 15.939375 60.12375 19.87875 60.1875 23.9375 C60.25180941 34.67248257 59.43085386 44.56428784 57 55 C56.69255859 56.55267578 56.69255859 56.55267578 56.37890625 58.13671875 C51.86273608 79.14672782 39.87354426 96.95598532 25 112 C24.40960938 112.66257812 23.81921875 113.32515625 23.2109375 114.0078125 C3.03609738 136.25186699 -36.28885796 148.98897823 -65.375 151.8125 C-67.58237237 151.90277512 -69.79114515 151.95996745 -72 152 C-73.31919434 152.05244873 -73.31919434 152.05244873 -74.66503906 152.10595703 C-96.68489773 152.96280272 -96.68489773 152.96280272 -106.70703125 148.09375 C-109.02787616 146.78473483 -109.02787616 146.78473483 -112 147 C-131.6466717 213.43978169 -143.49331888 293.74288009 -110.5625 358 C-93.70442369 387.85523264 -65.41177891 409.0083687 -32.609375 418.2265625 C-31.08279807 418.67905087 -29.56187568 419.15361083 -28.05932617 419.68041992 C-22.37256442 421.67025483 -16.73581342 422.98754469 -10.8125 424.0625 C-9.96880859 424.22298828 -9.12511719 424.38347656 -8.25585938 424.54882812 C3.72253263 426.77965805 15.71542554 428.34335893 27.875 429.125 C29.19113281 429.20991699 30.50726563 429.29483398 31.86328125 429.38232422 C52.53917254 430.59513586 73.2992964 430.16853028 94 430 C94.05406006 429.00492432 94.10812012 428.00984863 94.16381836 426.98461914 C95.36082904 406.30131211 101.37261637 389.40304838 117 375.1796875 C118.32690508 374.02382878 119.66021814 372.87528299 121 371.734375 C138.07255027 356.92927281 147.36106554 340.60253087 151.375 318.5625 C153.22189546 308.6113716 155.56740827 300.64480883 161 292 C161.64195312 290.95972656 162.28390625 289.91945313 162.9453125 288.84765625 C182.4760914 258.47920984 210.42002246 241.00791551 245.18164062 232.60302734 C252.04553332 231.13440165 259.00807131 230.50065662 266 230 C265.44334436 221.47210472 264.57182358 213.06780494 263.25 204.625 C262.99210693 202.96464722 262.99210693 202.96464722 262.72900391 201.27075195 C261.48946224 193.52885013 260.03183359 185.85066402 258.375 178.1875 C258.16907227 177.23375488 257.96314453 176.28000977 257.75097656 175.29736328 C256.79166375 171.01155166 255.70243437 167.05701095 254 163 C253.34919405 160.63194138 252.72647996 158.25606528 252.125 155.875 C250.46255833 149.4278732 248.42562696 143.20599239 246 137 C240.72661481 137.66611181 235.65759329 138.72674799 230.5 140 C199.53981858 147.64312171 169.21507355 139.9928873 142.2578125 123.7734375 C114.86744823 106.86764987 98.21736834 80.98614386 90.47265625 50.02880859 C87.52665976 37.38354475 87.83125576 24.90893473 88 12 C78.76 12 69.52 12 60 12 Z " fill="#3E3842" transform="translate(145,40)"/>
  <path d="M0 0 C22.27567111 5.94899228 43.79434999 21.02371503 60.1015625 37.0078125 C60.62669434 37.51513916 61.15182617 38.02246582 61.69287109 38.54516602 C62.70350809 39.52997457 63.69975139 40.52985704 64.67822266 41.54663086 C67.16120685 43.96509384 68.72080509 44.96227096 72.1796875 45.4296875 C77.13237296 44.87263699 81.98573592 44.02111419 86.875 43.0625 C97.04232234 41.09440682 106.69631733 39.83295355 117.0625 39.9375 C117.92810547 39.94201172 118.79371094 39.94652344 119.68554688 39.95117188 C121.79039539 39.96280087 123.89520758 39.98072927 126 40 C130.30994004 52.92982011 126.9486972 69.97087283 124 83 C123.69255859 84.55847656 123.69255859 84.55847656 123.37890625 86.1484375 C118.84543108 107.15447772 106.87759656 124.95594082 92 140 C91.33613281 140.73605469 90.67226562 141.47210938 89.98828125 142.23046875 C69.20573687 164.81627078 30.48630743 177.91372947 0.625 180.8125 C-1.58237237 180.90277512 -3.79114515 180.95996745 -6 181 C-7.31919434 181.05244873 -7.31919434 181.05244873 -8.66503906 181.10595703 C-32.7109048 182.04163953 -32.7109048 182.04163953 -43 176 C-43.66 175.34 -44.32 174.68 -45 174 C-41.72465335 161.80364341 -36.87354932 150.19153643 -30.92578125 139.0546875 C-30.60134033 138.44101318 -30.27689941 137.82733887 -29.94262695 137.19506836 C-29.06363843 135.55615657 -28.15781384 133.93171626 -27.25 132.30859375 C-24.6876983 125.52650143 -26.04000397 118.69723336 -27.375 111.75 C-32.74296155 81.11916896 -37.95402436 36.51434054 -21.484375 8.4140625 C-15.51479402 0.062679 -10.16819942 -1.40743382 0 0 Z " fill="#B67E5C" transform="translate(79,12)"/>
  <path d="M0 0 C3.38366188 2.7458082 4.63637021 4.63720448 6.17578125 8.765625 C6.45705668 11.80145986 6.42364926 14.72924182 6.17578125 17.765625 C4.2734375 18.328125 4.2734375 18.328125 2.17578125 18.765625 C-0.52235942 17.03881497 -1.00057841 15.29533257 -2.13671875 12.265625 C-3.53831729 8.63358068 -3.53831729 8.63358068 -6.57421875 6.828125 C-11.64688976 5.16975179 -15.68982294 4.93778349 -20.51171875 7.328125 C-24.3556503 9.72625347 -25.88917817 12.74074059 -27.82421875 16.765625 C-29.14421875 16.765625 -30.46421875 16.765625 -31.82421875 16.765625 C-32.24577868 10.65300598 -31.93848544 7.61834982 -27.82421875 2.765625 C-19.26752025 -5.71166099 -10.26910821 -6.83542506 0 0 Z " fill="#32202D" transform="translate(299.82421875,203.234375)"/>
  <path d="M0 0 C4.3270257 2.77914659 8.26830809 5.63846564 10.15234375 10.60546875 C10.59110862 13.67682284 10.52439966 16.69606155 10.46484375 19.79296875 C8.21484375 19.73046875 8.21484375 19.73046875 5.46484375 18.79296875 C4.46407501 17.04969418 3.46776979 15.30238102 2.546875 13.515625 C0.72682609 10.61800201 -1.34766706 9.83503252 -4.53515625 8.79296875 C-8.55991347 8.21800343 -10.94609833 7.90031072 -14.49609375 9.89453125 C-18.79509359 13.2865691 -20.78714215 16.65175082 -22.53515625 21.79296875 C-26.41015625 20.91796875 -26.41015625 20.91796875 -27.53515625 19.79296875 C-27.88847141 14.12888514 -27.06886994 9.76889469 -23.41015625 5.35546875 C-17.15958312 -0.92046168 -8.35796955 -3.97937225 0 0 Z " fill="#32202D" transform="translate(147.53515625,200.20703125)"/>
  <path d="M0 0 C3.55042167 1.35561555 6.7950046 2.81500665 9 6 C9.4375 8.4375 9.4375 8.4375 9 11 C6.17693982 14.52882522 3.17504104 16.6866775 -1.33203125 17.3359375 C-7.46194834 17.43247163 -11.0048838 16.61348832 -16 13 C-17.43735246 10.12529507 -17.38172649 8.18105412 -17 5 C-11.63842165 -0.22048418 -7.22426128 -0.63253901 0 0 Z " fill="#FBA9B0" transform="translate(218,215)"/>
  <path d="M0 0 C1.8125 0.1875 1.8125 0.1875 4 1 C5.04892238 2.63631892 6.04906703 4.30485863 7 6 C11.02181615 8.68121076 14.27236391 8.81344335 19 8 C22.0717718 6.28922026 24.40485654 4.19028693 26 1 C30.26167447 1.47351939 32.15020808 4.00021903 35 7 C38.19598065 8.59799033 41.52322756 8.36773555 45 8 C49.21285902 6.2212373 50.93145393 4.02822129 53 0 C53.99 0.33 54.98 0.66 56 1 C55.68936785 4.41695365 55.38121598 6.50986517 53.25 9.25 C48.35283568 13.05890558 43.67766705 13.40845146 37.65234375 13.34375 C34.06574123 12.87891786 31.89940491 11.07100351 29 9 C26.36723913 9.51953703 26.36723913 9.51953703 24 11 C18.65214147 13.47033059 13.80603523 13.55170471 8 13 C3.40562611 11.24045255 1.2856182 8.30751123 -1 4 C-0.75 1.625 -0.75 1.625 0 0 Z " fill="#331E2C" transform="translate(186,235)"/>
  <path d="M0 0 C14.77784112 0.51401186 28.59236705 3.69660416 42 10 C42 11.32 42 12.64 42 14 C37.9524114 13.32036759 34.33427186 12.07604325 30.5 10.625 C20.14143516 6.87989714 9.99743347 4.6391294 -1 4 C-0.67 2.68 -0.34 1.36 0 0 Z " fill="#33212E" transform="translate(59,209)"/>
  <path d="M0 0 C1.15177734 0.00451172 2.30355469 0.00902344 3.49023438 0.01367188 C6.30604518 0.02535574 9.12174398 0.04173719 11.9375 0.0625 C11.9375 1.3825 11.9375 2.7025 11.9375 4.0625 C10.83631836 4.092229 10.83631836 4.092229 9.71289062 4.12255859 C-3.97599283 4.51042458 -17.51918465 4.92626496 -31.0625 7.0625 C-30.7325 5.7425 -30.4025 4.4225 -30.0625 3.0625 C-19.99417035 0.31659191 -10.41893881 -0.07815707 0 0 Z " fill="#2F1D29" transform="translate(89.0625,235.9375)"/>
  <path d="M0 0 C14.35554519 -0.3564211 27.92816066 0.01506438 42 3 C42 4.32 42 5.64 42 7 C40.66658348 6.85492922 39.33327236 6.7088897 38 6.5625 C37.2575 6.48128906 36.515 6.40007812 35.75 6.31640625 C33.66273824 6.07625255 31.57991556 5.79713079 29.5 5.5 C23.69044471 4.76902799 17.84705545 4.64177857 12 4.4375 C10.84371094 4.39431641 9.68742187 4.35113281 8.49609375 4.30664062 C5.66416146 4.20132083 2.83215253 4.09918913 0 4 C0 2.68 0 1.36 0 0 Z " fill="#392834" transform="translate(327,236)"/>
  <path d="M0 0 C0 0.99 0 1.98 0 3 C-0.83640015 3.09704224 -0.83640015 3.09704224 -1.68969727 3.19604492 C-13.72085903 4.63582956 -24.65672821 6.70909944 -36 11 C-37.9972377 11.67489705 -39.99640317 12.34422246 -42 13 C-42 11.68 -42 10.36 -42 9 C-36.41075457 6.02415602 -31.05787814 3.8558324 -24.9375 2.25 C-24.11983154 2.0331958 -23.30216309 1.8163916 -22.4597168 1.59301758 C-14.87177229 -0.27910272 -7.78379466 -0.52357363 0 0 Z " fill="#2C1A26" transform="translate(369,210)"/>
  <path d="M0 0 C1.34852838 0.03289094 2.69664125 0.09203839 4.04296875 0.17578125 C4.73583984 0.19833984 5.42871094 0.22089844 6.14257812 0.24414062 C7.83948448 0.30265464 9.53526736 0.39232645 11.23046875 0.48828125 C11.23046875 1.47828125 11.23046875 2.46828125 11.23046875 3.48828125 C4.63046875 4.14828125 -1.96953125 4.80828125 -8.76953125 5.48828125 C-3.76953125 0.48828125 -3.76953125 0.48828125 0 0 Z " fill="#231520" transform="translate(357.76953125,209.51171875)"/>
  <path d="M0 0 C4.62 0 9.24 0 14 0 C13.67 0.99 13.34 1.98 13 3 C9.04 3 5.08 3 1 3 C0.67 2.01 0.34 1.02 0 0 Z " fill="#200B1A" transform="translate(331,236)"/>
  <path d="M0 0 C1.32 0 2.64 0 4 0 C4 1.32 4 2.64 4 4 C-2.27 4 -8.54 4 -15 4 C-15 3.67 -15 3.34 -15 3 C-14.00097656 2.95101562 -13.00195312 2.90203125 -11.97265625 2.8515625 C-10.68230469 2.77679688 -9.39195313 2.70203125 -8.0625 2.625 C-6.77472656 2.55539063 -5.48695312 2.48578125 -4.16015625 2.4140625 C-3.11730469 2.27742187 -2.07445313 2.14078125 -1 2 C-0.67 1.34 -0.34 0.68 0 0 Z " fill="#4E404B" transform="translate(97,236)"/>
  <path d="M0 0 C4.29 0.33 8.58 0.66 13 1 C9.3750203 2.81248985 7.62740416 3.31888915 3.75 3.625 C2.85796875 3.69976562 1.9659375 3.77453125 1.046875 3.8515625 C0.37140625 3.90054688 -0.3040625 3.94953125 -1 4 C-0.67 2.68 -0.34 1.36 0 0 Z " fill="#41323B" transform="translate(59,209)"/>
  <path d="M0 0 C-0.33 0.99 -0.66 1.98 -1 3 C-10.41002278 3.18451025 -10.41002278 3.18451025 -15 2 C-15 1.67 -15 1.34 -15 1 C-9.92928099 0.28832014 -5.11791642 -0.10662326 0 0 Z " fill="#23131F" transform="translate(362,238)"/>
  <path d="M0 0 C2.475 0.495 2.475 0.495 5 1 C5 1.66 5 2.32 5 3 C8.63 3 12.26 3 16 3 C16 3.33 16 3.66 16 4 C10.72 4 5.44 4 0 4 C0 2.68 0 1.36 0 0 Z " fill="#4B3C47" transform="translate(327,236)"/>
  <path d="M0 0 C0.33 0.66 0.66 1.32 1 2 C0.67 2.99 0.34 3.98 0 5 C-3.0625 6.1875 -3.0625 6.1875 -6 7 C-6 5.68 -6 4.36 -6 3 C-4.02 2.01 -2.04 1.02 0 0 Z " fill="#382732" transform="translate(333,216)"/>
  <path d="M0 0 C-0.33 0.99 -0.66 1.98 -1 3 C-5.95 2.67 -10.9 2.34 -16 2 C-16 1.67 -16 1.34 -16 1 C-10.62915894 0.31798844 -5.41499441 -0.11521265 0 0 Z " fill="#170612" transform="translate(75,211)"/>
  <path d="M0 0 C1.98 0 3.96 0 6 0 C6 0.99 6 1.98 6 3 C3.69 3.33 1.38 3.66 -1 4 C-0.67 2.68 -0.34 1.36 0 0 Z " fill="#261421" transform="translate(59,239)"/>
  <path d="M0 0 C-1 3 -1 3 -3.0625 4.1875 C-3.701875 4.455625 -4.34125 4.72375 -5 5 C-5.99 4.34 -6.98 3.68 -8 3 C-7 1 -7 1 -5.125 0.375 C-3 0 -3 0 0 0 Z " fill="#372532" transform="translate(352,211)"/>
  <path d="M0 0 C0.66 0.99 1.32 1.98 2 3 C0.35 4.32 -1.3 5.64 -3 7 C-3.66 6.34 -4.32 5.68 -5 5 C-3.35 3.35 -1.7 1.7 0 0 Z " fill="#3E2C37" transform="translate(239,239)"/>
  <path d="M0 0 C1.32 0.66 2.64 1.32 4 2 C3.67 2.99 3.34 3.98 3 5 C1.35 4.67 -0.3 4.34 -2 4 C-1.34 2.68 -0.68 1.36 0 0 Z " fill="#40323C" transform="translate(98,218)"/>
  <path d="M0 0 C0.33 0.66 0.66 1.32 1 2 C-4.75 3.125 -4.75 3.125 -7 2 C-7 1.34 -7 0.68 -7 0 C-3.88407501 -1.03864166 -2.9737344 -1.09036928 0 0 Z " fill="#22101D" transform="translate(346,214)"/>
</svg>
